<svg xmlns="http://www.w3.org/2000/svg" viewBox="0 0 378.19 81.13" style="width:100%;  height:50%">

				<path class="cls-1" d="M309.91,417.74h0c1.71-3.93,1.8-10.53,1.72-12.36h-5.12v.29a24.89,24.89,0,0,1-1.08,9.15c-.06,0-5.2-3.58-6.68-4.66a61,61,0,0,1-10.68-9.46,15.72,15.72,0,0,1-3.46-6,7.18,7.18,0,0,1,3.35-8.32,10.58,10.58,0,0,1,6.89-1.31,8.14,8.14,0,0,1,6.65,4.43c1,2.14.55,4.43-.8,6.68a18.62,18.62,0,0,1-2,2.67l3.62,2.61a20.35,20.35,0,0,0,3.8-5.06c2.46-4.92.69-10.33-4.16-13.33a16.85,16.85,0,0,0-17,0c-3.82,2.4-5.71,5.72-5.61,9.87a12.39,12.39,0,0,0,1.75,5.88c.62,1.07,1.32,2.12,2,3.14l.76,1.14-.26.13a14,14,0,0,0-7.28,7.91c-1.79,5.18.18,12,7.42,15a22.64,22.64,0,0,0,8.81,1.71,28.85,28.85,0,0,0,4.57-.38,16.92,16.92,0,0,0,10.41-5.67l0,0,8,5,2.71-3.89-2.57-1.56c-1.85-1.13-3.89-2.42-5.75-3.54m-6.7,1.22a11.7,11.7,0,0,1-6.94,4,16.7,16.7,0,0,1-10.22-.92c-2.81-1.24-4.48-3-5.08-5.41-.79-3.15.24-5.88,3.06-8.13a15.18,15.18,0,0,1,2.28-1.38l1-.51s8.58,7.83,15.94,12.31" transform="translate(-107.97 -380.75)"></path>
				<polygon class="cls-1" points="117.28 25.08 139.05 25.08 139.05 20.65 117.27 20.65 117.27 4.8 142.12 4.8 142.12 0.38 111.5 0.38 111.5 46.64 142.13 46.64 142.13 42.23 117.28 42.23 117.28 25.08"></polygon>
				<polygon class="cls-1" points="0 46.65 5.74 46.65 5.74 25.1 27.47 25.1 27.47 20.65 5.79 20.65 5.79 4.78 30.57 4.78 30.57 0.39 0 0.39 0 46.65"></polygon>
				<path class="cls-1" d="M449.53,381.13h-4.88s0,21.21,0,28.29a17.55,17.55,0,0,1-.89,5.53,11.33,11.33,0,0,1-8.36,7.79,19.33,19.33,0,0,1-7.83.33c-4.66-.72-7.88-3.1-9.56-7.07a18.51,18.51,0,0,1-1.3-7.43V381.12h-5v27.43a25.4,25.4,0,0,0,1.09,7.94,14.92,14.92,0,0,0,10.76,10.34,26.59,26.59,0,0,0,7.06,1,27.07,27.07,0,0,0,6.87-.9,15,15,0,0,0,10.09-8.08,20.38,20.38,0,0,0,2-9c0-7,0-28.67,0-28.67" transform="translate(-107.97 -380.75)"></path>
				<path class="cls-1" d="M362.93,383.62c-2.95-1.61-6.46-2.31-10.72-2.5s-11.23,0-11.23,0v46.25h4.91V385.61l2,0c1.78,0,3.45,0,5.15.05a21.44,21.44,0,0,1,4.61.76c3.86,1.09,6.26,3.36,7.11,6.76a11.65,11.65,0,0,1-.31,6.86,8.87,8.87,0,0,1-4.33,5,14.2,14.2,0,0,1-5,1.56c-.88.12-3.05.35-4.8.44-1.34.06-2.26.08-2.26.08l1.2,4.32a52,52,0,0,0,8.41-.74c5-1.09,8.55-3.64,10.67-7.58a15.14,15.14,0,0,0,1.49-9.6,12.92,12.92,0,0,0-6.89-9.83" transform="translate(-107.97 -380.75)"></path>
				<path class="cls-1" d="M483.71,408.49a21.48,21.48,0,0,0-5.56-4.8c-1.26-.79-2.56-1.57-3.82-2.32s-2.39-1.41-3.57-2.14a14.91,14.91,0,0,1-4.82-4.29,5.81,5.81,0,0,1,.7-7.39,8.52,8.52,0,0,1,5-2.11,21.78,21.78,0,0,1,8.81.77c.78.21,1.54.46,2.34.72l1.12.37.29.09,1-4.09-.24-.17a.83.83,0,0,0-.16-.09,26.46,26.46,0,0,0-15.82-1.68,11.48,11.48,0,0,0-7.43,4.57A10.59,10.59,0,0,0,462.64,399a23.72,23.72,0,0,0,5.3,4.21c1,.61,2,1.2,3,1.8,1.44.85,2.92,1.74,4.35,2.64a13.54,13.54,0,0,1,4.92,4.74,7.14,7.14,0,0,1,.64,5.87,6.87,6.87,0,0,1-4.3,4,18.46,18.46,0,0,1-8.92.75,26.6,26.6,0,0,1-7.26-2.17c-.16-.07-.33-.14-.51-.2l-.64-.26-.92,4.48.23.08c.5.18,1,.36,1.47.55,1,.39,2.14.8,3.24,1.12a27,27,0,0,0,7.43,1.08,23.45,23.45,0,0,0,6.26-.84c4.4-1.21,7.49-3.95,8.71-7.71a11.7,11.7,0,0,0-1.91-10.67" transform="translate(-107.97 -380.75)"></path>
				<polygon class="cls-1" points="275.94 0.38 271.03 0.38 271.03 46.64 298.3 46.64 298.3 42.23 275.94 42.23 275.94 0.38"></polygon>
				<rect class="cls-1" x="41.06" y="0.38" width="5.69" height="46.26"></rect>
				<path class="cls-1" d="M204.73,381.13l-16,34.62,2.45,5.27S202.3,397.74,208,385.85l2.23-4.74Z" transform="translate(-107.97 -380.75)"></path>
				<path class="cls-1" d="M169.7,381.11h-6l22.47,46a1,1,0,0,0,1.06.68h0a1,1,0,0,0,1.05-.7l1.54-3.21-.06-.13c-.17-.37-18-38.28-20-42.62" transform="translate(-107.97 -380.75)"></path>
				<path class="cls-1" d="M210.44,458H212c0,2,1.72,2.7,3.86,2.7s3.32-.7,3.32-2c0-1.05-.87-1.56-3.19-2l-1.17-.22c-2.23-.41-4-1.17-4-3.17,0-1.76,1.75-2.87,4.48-2.87,3.87,0,5.07,1.65,5.13,3.44H218.9c-.13-1.42-.92-2.27-3.54-2.27-1.9,0-2.87.67-2.87,1.7s.6,1.57,3.08,2l1.16.22c3,.55,4.09,1.54,4.09,3.13,0,1.94-1.77,3.22-4.92,3.22s-5.42-1.13-5.46-3.87" transform="translate(-107.97 -380.75)"></path>
				<polygon class="cls-1" points="142.57 71.08 142.57 74.58 149.41 74.58 149.41 75.75 142.57 75.75 142.57 79.71 150.07 79.71 150.07 80.88 141.02 80.88 141.02 69.91 150.15 69.91 150.15 71.08 142.57 71.08"></polygon>
				<path class="cls-1" d="M285.55,456.14c0-3.4,2.47-5.73,6.29-5.73s6.28,2.33,6.28,5.73-2.47,5.74-6.28,5.74-6.29-2.33-6.29-5.74m10.95,0a4.67,4.67,0,1,0-4.66,4.55,4.31,4.31,0,0,0,4.66-4.55" transform="translate(-107.97 -380.75)"></path>
				<path class="cls-1" d="M326.29,457.56v-6.9h1.55v6.9c0,2.16,1.33,3.13,3.61,3.13s3.62-1,3.62-3.13v-6.9h1.55v6.9c0,2.74-1.88,4.3-5.17,4.3s-5.16-1.56-5.16-4.3" transform="translate(-107.97 -380.75)"></path>
				<polygon class="cls-1" points="265.52 79.71 265.52 80.88 257.37 80.88 257.37 69.91 258.92 69.91 258.92 79.71 265.52 79.71"></polygon>
			</svg>